<svg xmlns="http://www.w3.org/2000/svg" xmlns:xlink="http://www.w3.org/1999/xlink" version="1.1" x="0px" y="0px" viewBox="0 0 64 80" style="enable-background:new 0 0 64 64;" xml:space="preserve"><g><path d="M40.7,35.2V23.4c0-0.1,0-0.3-0.1-0.4l-2.1-4.9v-2.9c0-0.6-0.4-1-1-1H26.4c-0.6,0-1,0.4-1,1v2.9l-2,4.8   c-0.1,0.1-0.1,0.3-0.1,0.4v11.7c0,0.6,0.4,1,1,1h4.3h11.2C40.3,36.2,40.7,35.7,40.7,35.2z M27.4,16.3h9.2v1h-9.2V16.3z M25.3,23.6   l1.1-2.7l1.1,2.7v10.5h-2.3V23.6z M38.7,34.2h-9.2V23.4c0-0.1,0-0.3-0.1-0.4l-1.6-3.7h9l1.8,4.3V34.2z"/><path d="M34.1,23.8c-2.4,0-4.2,1.4-4.2,3.1c0,1.8,1.8,3.1,4.2,3.1s4.2-1.4,4.2-3.1C38.4,25.1,36.5,23.8,34.1,23.8z M34.1,28   c-1.3,0-2.2-0.7-2.2-1.1s0.9-1.1,2.2-1.1s2.2,0.7,2.2,1.1S35.5,28,34.1,28z"/><path d="M32,7.2c-9.1,0-16.6,7.4-16.6,16.6c0,6.7,4.7,14.1,9,19.4c-3.8,1.3-6.1,3.6-6.1,6.2c0,4.2,6,7.4,13.7,7.4   s13.7-3.3,13.7-7.4c0-2.6-2.3-4.9-6.1-6.2c4.3-5.3,9-12.7,9-19.4C48.6,14.6,41.1,7.2,32,7.2z M32,9.2c8,0,14.6,6.5,14.6,14.6   c0,9.9-11.6,21.9-14.6,24.8c-3-2.9-14.6-14.9-14.6-24.8C17.4,15.7,24,9.2,32,9.2z M43.7,49.4c0,2.6-4.7,5.4-11.7,5.4   S20.3,52,20.3,49.4c0-1.8,2.1-3.5,5.5-4.5c2.9,3.4,5.3,5.6,5.5,5.9c0.2,0.2,0.4,0.3,0.7,0.3s0.5-0.1,0.7-0.3   c0.2-0.2,2.7-2.5,5.5-5.9C41.5,45.9,43.7,47.6,43.7,49.4z"/></g><text x="0" y="79" fill="#000000" font-size="5px" font-weight="bold" font-family="'Helvetica Neue', Helvetica, Arial-Unicode, Arial, Sans-serif">Created by Andre Buand</text><text x="0" y="84" fill="#000000" font-size="5px" font-weight="bold" font-family="'Helvetica Neue', Helvetica, Arial-Unicode, Arial, Sans-serif">from the Noun Project</text></svg>